<svg width="20" height="20" viewBox="0 0 20 20" fill="none" xmlns="http://www.w3.org/2000/svg">
<g clip-path="url(#clip0_5_522)">
<path d="M10 1.66667C5.40002 1.66667 1.66669 5.4 1.66669 10C1.66669 14.6 5.40002 18.3333 10 18.3333C14.6 18.3333 18.3334 14.6 18.3334 10C18.3334 5.4 14.6 1.66667 10 1.66667ZM10 4.16667C11.3834 4.16667 12.5 5.28333 12.5 6.66667C12.5 8.05 11.3834 9.16667 10 9.16667C8.61669 9.16667 7.50002 8.05 7.50002 6.66667C7.50002 5.28333 8.61669 4.16667 10 4.16667ZM10 16C7.91669 16 6.07502 14.9333 5.00002 13.3167C5.02502 11.6583 8.33335 10.75 10 10.75C11.6584 10.75 14.975 11.6583 15 13.3167C13.925 14.9333 12.0834 16 10 16Z" fill="#00923A"/>
</g>
<defs>
<clipPath id="clip0_5_522">
<rect width="20" height="20" fill="white"/>
</clipPath>
</defs>
</svg>
