<svg width="158" height="61" viewBox="0 0 158 61" fill="none" xmlns="http://www.w3.org/2000/svg">
<g clip-path="url(#clip0_24_2)">
<path fill-rule="evenodd" clip-rule="evenodd" d="M37.0044 19.0076C37.0044 18.3269 37.2534 17.7902 37.5957 17.4497C38.4327 16.616 39.4828 16.8944 40.3705 17.8025C41.0227 18.4697 41.2344 20.1036 40.9795 20.7446C40.7661 21.2809 40.4209 21.6027 39.903 21.8512C39.0858 22.2438 38.4336 21.6682 37.9036 21.0897C37.2596 20.3863 37.0044 19.9424 37.0044 19.0076ZM28.5932 55.9654L27.1674 54.5257C28.5903 53.8728 32.3688 51.2136 33.4589 51.2024C33.2262 51.9188 29.3589 55.3766 28.5932 55.9654ZM15.7683 56.8882C15.7097 56.8251 15.66 56.8344 15.6059 56.807C16.3173 56.6111 16.6576 56.6674 17.1505 56.8722C18.2458 57.3281 18.26 57.187 18.2764 57.6279L15.7683 56.8882ZM35.1892 48.1221C34.407 48.4186 34.3712 48.5734 34.2303 49.4244C33.1436 49.8259 30.5215 49.689 29.4105 49.6726C27.7886 49.6483 26.1499 49.8413 25.0236 48.5046C26.3016 48.1062 28.5469 47.8471 29.9667 47.6255C33.3852 47.0919 40.3006 45.3994 43.7846 47.1563C42.4623 47.3993 41.859 46.9514 39.3963 47.8653C37.2411 48.6655 36.389 49.6546 34.5976 50.603C34.762 49.2758 35.5151 49.338 35.1892 48.1221ZM21.9909 58.4887C21.4113 58.3646 12.6617 53.5451 11.9859 52.8911C13.1674 52.4217 14.1678 52.5484 15.0256 52.8167L17.5271 53.8247C18.2875 54.2311 21.219 57.5333 21.9909 58.4887ZM26.6929 59.6864C24.4915 60.3993 24.9026 60.4603 23.3363 58.743C21.6305 56.8727 15.5787 50.5584 14.9352 49.5299C16.399 49.3828 16.884 49.7334 18.2215 50.6726C19.2099 51.367 20.1786 52.1958 21.2433 53.0204C23.5072 54.7733 25.044 57.402 26.6929 59.6864ZM24.2429 52.3364C25.7417 54.0475 27.2312 56.0363 28.6418 56.852C30.3647 56.0802 37.4095 46.8372 44.1157 48.0888C44.8515 48.2265 45.792 48.3465 46.5631 48.7201C47.3818 49.116 48.0498 49.8303 49.0426 49.5555C48.4455 48.0613 44.5767 46.4205 43.6201 46.085C43.1535 45.9209 42.6294 45.8019 42.0636 45.7199C42.0657 45.7132 42.0679 45.7061 42.0691 45.6987C42.6236 42.6831 43.2256 39.9793 43.2489 37.0986C44.1004 37.1225 44.6118 37.0869 45.1429 36.5809C45.7095 36.0415 45.793 35.7629 45.8222 34.8468L46.0626 27.8975C46.0813 26.938 46.042 26.7335 45.5268 26.123C43.4916 23.7114 37.7489 23.0308 34.5894 24.9209C32.2475 26.3218 33.1512 27.5733 31.9598 29.5006C31.7453 29.8472 31.21 30.5371 30.8961 30.7497C30.6262 30.3654 29.7891 30.1206 29.6625 29.9057C29.6625 28.7849 29.7857 26.6567 29.6344 25.6536C29.3908 24.0365 27.4072 22.8778 25.7608 24.3489C25.4705 24.6083 25.4751 24.5834 25.2806 24.9668C24.8309 25.8545 24.9567 29.0307 25.0543 29.9784C23.7532 29.3126 22.9463 28.3341 22.1656 27.1257C21.7693 26.5125 21.6719 25.5832 21.2469 25.1294C20.9296 24.7908 20.0446 24.3299 19.377 24.166C19.3448 22.4522 19.4161 20.7173 19.3743 19.0044C19.2941 15.7306 14.2564 15.6035 14.1844 19.0772C14.1495 20.7582 14.1846 22.48 14.1846 24.1655C13.5374 24.2813 12.7753 24.6754 12.4085 25.0156C11.8272 25.5542 11.8492 26.0703 11.8127 27.0641C11.7566 28.5973 11.8225 30.3271 12.2546 31.7438C12.4546 32.4 12.7233 33.0523 13.0447 33.5723C13.3503 34.0669 13.4978 34.0974 13.443 34.4593L12.6133 37.5792C12.4824 38.01 12.0383 39.2365 12.1841 39.5826C12.3603 39.8671 13.8858 40.1339 14.1907 40.1722L14.7726 48.7613C14.5022 48.8499 14.241 48.9981 13.9944 49.2211L14.2748 50.0425C14.2974 50.077 14.8871 50.711 14.9717 50.8C15.5075 51.3633 15.9725 51.8076 16.4404 52.4895L16.074 52.4176C16.0324 52.4078 15.9526 52.3923 15.9032 52.3794C14.9394 52.1245 12.2181 50.8172 11.0566 52.9832C11.4772 54.1013 14.5294 55.128 15.5387 55.9024C14.7888 56.3263 14.51 56.3051 14.1236 56.9657C14.3598 57.8032 15.6461 57.5742 17.4122 58.0384C19.1508 58.4949 21.0991 59.0749 22.7298 59.9129C23.3894 60.252 23.651 60.6014 24.3722 60.8325C25.5097 61.198 26.9349 60.222 28.4726 60.2044C39.0345 60.0891 48.3009 54.5976 53.5984 45.3805C55.261 42.4882 56.524 38.0843 57.024 34.6979C57.1794 33.6462 57.4075 27.8744 56.5313 26.8417C55.865 27.2514 56.1124 27.6197 56.2095 28.4094C56.2859 29.0377 56.2979 29.5642 56.3457 30.1828C56.6477 34.0852 55.9746 36.8832 54.93 40.3732C53.734 44.367 51.0191 48.8051 46.9384 52.4398C42.4457 56.4415 37.3331 58.4028 31.8033 59.1772C27.7032 59.7516 27.8575 59.9382 25.3733 56.5315C23.6418 54.1582 21.8774 51.8257 20.1962 49.4501C20.5948 49.4538 20.9976 49.5772 21.4025 49.7895L24.2429 52.3364ZM41.4391 45.6458C40.8291 45.5882 40.1812 45.5671 39.5118 45.5742C39.6674 43.8923 39.8311 37.9702 39.6978 37.5602C39.07 37.4078 38.7166 37.6069 38.7222 38.1868L38.7638 45.5931C38.1014 45.6195 37.4247 45.6702 36.7495 45.7372C34.8774 36.3368 36.1498 37.4389 35.8348 28.7994L34.7102 28.811C34.7299 29.296 34.8449 30.1822 34.6561 30.5846C34.4763 30.969 33.5514 31.9667 33.268 32.1781C32.6111 32.6686 32.1313 32.9506 31.267 33.1283L31.1334 31.4276C31.5763 31.1712 31.9004 30.7327 32.2375 30.2809C33.8935 28.0608 32.893 27.0705 34.4017 25.8965C37.0669 23.8227 41.8677 24.4311 44.3615 26.4758C44.9075 26.9235 45.0703 27.3347 45.0477 27.9934L45.1657 33.972C45.0994 35.5696 45.2935 36.4161 43.2614 36.4294L43.4324 28.8084L42.7313 28.7914C42.7622 31.5159 42.3451 34.419 42.2423 37.1532C42.1293 40.1525 41.9943 42.6363 41.4021 45.5862C41.3989 45.602 41.413 45.623 41.4391 45.6458ZM36.1173 45.8047C34.0938 46.0356 32.1248 46.3968 30.6289 46.69C30.3318 46.7482 29.7401 46.8426 29.0266 46.9595C29.1478 46.2424 29.1582 45.5263 29.1993 44.7503C29.2295 44.1848 29.2835 42.3546 29.4204 41.9336C29.9747 41.8362 30.5052 41.706 30.9228 41.5034C30.9745 41.0336 30.4564 39.3527 30.3239 38.7537C32.4009 38.6565 31.2401 35.3589 31.3529 33.8288C31.7565 33.682 32.0497 33.6451 32.4484 33.4744C33.5683 32.9947 34.0142 32.4045 34.7794 31.6373C34.7545 33.2697 34.8832 34.9406 34.8757 36.5734C34.8689 38.0947 35.0346 39.6368 35.264 41.1077L36.1173 45.8047ZM28.359 47.0694C28.1609 47.1025 27.9583 47.1369 27.7538 47.172L27.6934 42.301L28.6837 42.0524L28.359 47.0694ZM27.0019 47.3049C26.7807 47.3453 26.5615 47.3864 26.3484 47.4281L26.0101 42.0403L27.0137 42.2646C26.9381 43.5125 27.0105 45.8495 27.0032 47.2389C27.003 47.262 27.0025 47.2841 27.0019 47.3049ZM25.6913 47.5624C24.7366 47.7677 24.0184 47.9764 23.9695 48.1536C24.1688 50.0179 26.8291 50.2507 27.9012 50.4232C29.1085 50.6177 31.7978 50.2149 32.6997 50.5503L26.6194 54.0129C24.9617 52.2439 21.0358 46.6271 19.1422 49.0509C19.3026 49.7453 20.088 50.5941 20.6093 51.3623C20.5012 51.3152 20.3304 51.2408 20.1567 51.141C20.0113 51.0576 19.8971 50.9843 19.7558 50.8875C19.1347 50.4609 18.1646 49.6363 17.1197 49.1178C17.2471 48.6564 17.1234 47.5442 17.1254 47.2725C17.1414 45.2369 17.0355 42.1495 17.1359 40.396L18.644 40.8501L18.1124 49.6328C18.3923 49.6561 18.4951 50.0143 18.6947 49.9354L19.4004 40.2052L21.3853 39.687C21.5116 39.103 21.0489 37.9408 20.8477 37.2274C20.2703 35.1798 19.3483 31.4869 19.0728 29.5422C19.2528 29.3755 19.3254 29.2877 19.54 29.1752C19.6914 29.459 19.6863 29.4145 19.9175 29.6498L20.1125 29.8896C20.5402 30.3926 22.8205 31.807 23.5242 31.9969C23.449 33.3052 23.2977 34.6621 23.2016 35.9849C23.0925 37.4841 22.8417 38.3949 24.3792 38.7926C24.2558 39.1332 23.7232 41.1341 23.79 41.4174C24.1706 41.8241 24.7795 41.7309 25.2832 41.9664C25.482 42.1806 25.4793 46.5353 25.6913 47.5624ZM16.6342 48.9036C16.2336 48.7495 15.828 48.6548 15.4326 48.6572L14.883 40.2948L16.2434 40.6713C16.3256 42.1831 16.4389 44.6634 16.4389 46.3977C16.4389 46.734 16.4214 48.1795 16.6342 48.9036ZM24.5253 38.0818C24.0218 38.0645 23.817 37.87 23.79 37.3209L24.2282 31.679C24.2658 31.1308 24.7953 31.132 25.2114 30.9279C26.5768 30.2572 28.6659 30.1378 29.9492 30.8622C30.4053 31.1197 30.4433 31.239 30.4825 31.8654L30.6554 36.1339C30.7231 36.9428 31.1929 38.1392 30.1581 38.062C29.9527 37.3746 29.0935 34.0707 29.3259 33.4148C29.3791 33.265 30.0352 32.3652 29.0357 32.506C28.6403 33.1354 28.485 33.6425 28.6799 34.5863L30.0528 41.0976C28.307 41.4987 26.2506 41.6284 24.5204 41.0482C24.5843 40.4765 24.8999 39.4621 25.0557 38.8307C25.3641 37.5813 25.9038 35.3912 26.0935 34.1896C26.1861 33.6032 25.6951 31.9466 24.8872 32.3673C24.7833 32.8932 25.399 33.296 25.3765 33.92C25.3584 34.4209 24.6585 37.6923 24.5253 38.0818ZM25.7062 28.5214C26.1897 28.8074 26.5351 29.173 27.3995 29.1665C28.2816 29.16 28.5317 28.7892 28.9779 28.5274L28.9686 29.7927C27.6947 29.7001 27.4071 29.2134 26.036 29.4898L25.7062 28.5214ZM13.6422 33.3474C13.5529 33.0296 13.4333 32.2297 13.2644 31.8123C12.7451 30.5287 12.6149 28.9712 12.6644 27.5961C12.8248 23.121 18.7092 24.0382 20.6003 25.4835C21.1535 25.9061 20.744 26.4574 21.5797 27.7647C21.9486 28.3414 22.8229 29.2242 23.3228 29.6039L24.2258 30.3079C24.232 30.2949 24.2536 30.3303 24.2672 30.3414C23.3603 31.1932 23.8404 30.8999 23.5304 31.2669C22.7386 30.844 22.1653 30.5679 21.4916 30.1153C21.1221 29.8672 19.9533 28.8896 19.915 28.524C19.8881 28.2684 20.3075 26.7439 19.6454 26.675C18.3131 27.6889 19.5152 28.5455 18.393 29.1766C18.2222 29.6125 19.0798 33.701 19.2651 34.4201L20.2914 38.9506C19.672 39.0487 19.3234 39.3494 18.6303 39.4303C16.5973 39.6669 14.8295 39.7402 12.8901 39.1809L14.1706 34.3249C15.9893 27.0651 14.9401 29.9243 14.3269 28.3139C14.1086 27.7404 14.4004 27.0183 14.1536 26.8084C13.574 26.2289 13.4415 27.5158 13.5942 28.2273C13.7584 28.9929 14.2564 29.266 14.5057 29.5665L13.9259 32.4182C13.8638 32.6813 13.7951 33.1445 13.6422 33.3474ZM28.7493 25.3128C28.852 25.4086 28.7912 25.3228 28.8676 25.4539C28.9717 25.6326 28.9765 25.84 28.9846 26.0527C28.9945 26.3088 28.9094 27.1246 28.8881 27.3752C28.7621 28.8613 27.3185 28.6301 26.2354 27.3715C25.7815 26.8443 25.5658 25.6849 25.9903 25.0829C26.6333 24.1709 27.1361 24.3975 27.993 24.8079C27.4628 25.9866 27.0834 25.3998 26.6953 25.503C26.1725 25.6418 26.4807 26.5766 27.8507 26.0723C28.3245 25.898 28.6146 25.7063 28.7493 25.3128ZM14.8531 21.8458C15.1634 22.0101 15.6172 22.6771 16.8112 22.6695C17.7846 22.6629 18.23 22.1625 18.7004 21.8409L18.6758 23.9928C17.0598 23.6115 16.6556 23.5311 15.4982 23.5554L14.8531 21.8458ZM15.4314 21.2102C14.6413 20.4159 14.7789 19.2032 15.0533 18.1928C15.0664 18.2057 15.0835 18.2241 15.0915 18.233L15.327 18.5205C15.7235 18.9879 15.7742 19.06 16.3134 19.2891C16.8036 19.4976 17.9623 19.7087 18.098 19.0801C18.082 18.3301 16.3177 19.4555 15.5964 17.6266C16.4813 16.7084 17.8208 17.5379 18.2712 18.2915C18.7999 19.1757 18.7561 20.4651 18.144 21.1586C17.4067 21.9935 16.3173 22.1005 15.4314 21.2102ZM36.3347 20.2427C36.4696 21.7828 37.9746 23.1286 39.7951 22.6203C42.2586 21.933 42.1287 18.6811 41.4232 17.4876C40.2377 15.4822 35.9016 15.2965 36.3347 20.2427Z" fill="#E31F25"/>
<path fill-rule="evenodd" clip-rule="evenodd" d="M40.8116 11.6285C39.4597 11.1097 35.8038 6.99897 35.744 5.25969C37.1666 5.74164 40.4447 9.809 40.8116 11.6285ZM37.6048 5.59276C40.5022 6.75135 42.0972 7.26613 44.9377 9.32994C45.6474 9.84575 45.399 9.92774 46.1323 9.77545C46.1019 8.51456 41.8779 6.63824 40.6544 5.90826C41.5141 5.53373 41.7093 5.71879 41.7549 4.98777C40.5107 4.34919 41.3946 5.82229 38.2629 5.00846C37.2615 4.74833 35.5607 4.35752 34.8991 3.91623C36.3788 3.2574 39.0763 1.55385 38.858 0.00865481C37.487 -0.129114 34.4438 1.40563 33.441 2.63462C32.7983 3.42282 33.0763 3.65042 32.0012 3.59094C30.864 3.52779 29.869 3.30418 28.5909 3.31042C27.6072 3.31521 25.8628 3.58808 24.9411 3.50979C25.4918 2.66228 26.0716 2.79356 25.7154 1.92884C25.2666 1.92724 23.5624 3.7325 21.845 4.16664C20.2018 4.58225 18.8737 5.12221 17.2403 5.65717C17.4085 5.09396 18.0679 2.47644 17.2262 1.80523C16.3362 1.96011 15.7796 3.27851 15.4783 3.8881C15.0253 4.80425 14.9002 5.45277 15.2536 6.69273C13.2489 7.70683 11.9245 8.95691 10.1982 9.95525C10.2777 9.15956 10.5163 8.38527 10.4391 7.45207C10.3636 6.54069 10.4637 5.34912 9.68613 4.66099C8.66557 5.22009 7.78919 7.16791 7.55422 7.97388C6.97981 9.94423 7.7921 11.7004 7.70583 12.1922C7.54299 12.6989 6.07957 14.3499 5.67781 14.8163C4.64527 16.0157 3.18775 18.8284 2.45961 20.3035L1.28476 23.3027C0.391047 25.5251 -0.770152 34.7468 0.703754 35.8025C1.58611 35.0571 0.732158 34.4024 0.822073 31.9686C0.947241 28.5781 1.83366 20.9785 4.69643 18.6029C6.24251 17.3195 6.51516 17.8136 7.80151 17.2401C7.36389 16.5856 7.32792 16.6019 6.5861 16.7599C6.03555 16.8771 5.47886 17.1657 4.93858 17.4207C6.2357 15.1371 8.35726 12.3001 10.7627 10.6292C12.3636 11.1471 11.9101 11.9269 16.4448 12.3659C17.6234 12.4801 21.7082 12.6222 22.892 11.6092C22.5446 10.8096 21.4807 10.5519 20.7688 10.3341C18.5488 9.65459 18.204 9.51667 15.7055 9.21994L12.7962 8.97413L18.9184 5.69595C20.1361 7.13782 25.0641 8.32649 27.0708 7.09347C26.1084 5.51775 23.7226 5.52742 22.6514 4.84533C24.5896 4.11758 28.4151 3.64111 30.6448 4.80903C32.4891 5.77483 32.0593 6.28641 33.0116 6.06158C33.0978 5.38164 32.114 4.75994 31.6129 4.33677L34.6158 4.5797C35.4926 7.08132 36.1327 8.17286 37.9197 10.1226C38.9561 11.2537 40.8871 13.2653 42.1285 13.1243C42.2293 11.2253 38.8185 6.84988 37.6048 5.59276ZM21.2172 11.421C21.1525 11.432 20.8857 11.4862 20.8199 11.4986C20.756 11.5104 20.6996 11.5223 20.6307 11.5344C18.8655 11.8464 13.0075 11.5696 11.9028 10.1712C14.1069 9.63541 17.0301 9.94553 18.9738 10.5246C19.4002 10.6518 19.5826 10.6726 20.0422 10.831C20.2019 10.8863 20.4037 10.9577 20.5863 11.0467C20.6344 11.0703 20.6905 11.1003 20.7352 11.1241C20.7831 11.149 20.8513 11.1919 20.891 11.2142C20.9329 11.2368 21.0537 11.3514 21.0527 11.3143C21.0517 11.276 21.1629 11.3847 21.2172 11.421ZM33.9048 3.36074C34.5066 2.22251 36.3531 1.44491 37.4693 1.09412C36.842 2.07886 35.0541 3.23741 33.9048 3.36074ZM25.3198 6.72478C24.5087 6.97033 23.1525 6.73295 22.4837 6.61529C21.5162 6.44531 20.8659 6.28672 19.9661 5.60868C21.5136 5.18913 24.2281 6.00312 25.3198 6.72478ZM15.9074 6.16327C15.6887 5.00154 16.1733 4.13633 16.8217 3.15808C16.8696 4.05532 16.6354 5.45758 15.9074 6.16327ZM8.32738 11.4691C7.91419 9.80218 8.2423 7.29585 9.46638 5.99454C9.83774 7.35163 9.83015 10.6012 8.32738 11.4691Z" fill="#00923A"/>
<path d="M136.659 18.8406C136.836 18.7909 137.024 18.7579 137.224 18.7413C137.423 18.7248 137.62 18.7165 137.814 18.7165C138.036 18.7165 138.255 18.7413 138.471 18.7909C138.687 18.8406 138.881 18.9316 139.054 19.0639C139.231 19.1962 139.372 19.3782 139.477 19.6098C139.588 19.8414 139.644 20.1364 139.644 20.4948C139.644 20.8422 139.591 21.1372 139.486 21.3798C139.386 21.6224 139.25 21.8209 139.078 21.9754C138.912 22.1242 138.718 22.2345 138.496 22.3062C138.28 22.3724 138.056 22.4055 137.823 22.4055C137.8 22.4055 137.764 22.4055 137.714 22.4055C137.664 22.4055 137.612 22.4055 137.556 22.4055C137.501 22.3999 137.445 22.3944 137.39 22.3889C137.34 22.3834 137.304 22.3778 137.282 22.3724V24.5725H136.659V18.8406ZM137.847 19.2872C137.737 19.2872 137.628 19.2927 137.523 19.3038C137.424 19.3092 137.343 19.3203 137.282 19.3368V21.8017C137.304 21.8127 137.337 21.8209 137.382 21.8265C137.431 21.8265 137.481 21.8292 137.531 21.8347C137.581 21.8347 137.628 21.8347 137.673 21.8347C137.722 21.8347 137.759 21.8347 137.781 21.8347C137.936 21.8347 138.086 21.8154 138.23 21.7768C138.374 21.7382 138.502 21.6693 138.612 21.5701C138.723 21.4653 138.812 21.3274 138.879 21.1565C138.951 20.98 138.986 20.7595 138.986 20.4948C138.986 20.2632 138.953 20.0702 138.887 19.9158C138.826 19.7614 138.743 19.6373 138.637 19.5436C138.537 19.4498 138.418 19.3837 138.28 19.3451C138.141 19.3065 137.997 19.2872 137.847 19.2872Z" fill="#00923A"/>
<path d="M136.007 19.3533H134.577V24.5725H133.953V19.3533H132.523V18.7826H136.007V19.3533Z" fill="#00923A"/>
<path d="M131.25 21.9009H129.104V24.5725H128.481V18.7826H129.104V21.3301H131.25V18.7826H131.873V24.5725H131.25V21.9009Z" fill="#00923A"/>
<path d="M124.916 18.7826H127.502V19.3533H125.539V21.3136H127.344V21.8843H125.539V24.0017H127.543V24.5725H124.916V18.7826Z" fill="#00923A"/>
<path d="M124.21 25.6394H123.778L123.67 24.5725H120.335V18.7826H120.959V24.0017H122.971V18.7826H123.595V24.0017H124.21V25.6394Z" fill="#00923A"/>
<path d="M116.886 20.7843L116.936 20.0233H116.91L116.62 20.8008L114.465 24.5725H114.05V18.7826H114.673V22.6287L114.615 23.3731H114.649L114.939 22.5956L117.102 18.7826H117.509V24.5725H116.886V20.7843ZM115.255 17.3765C115.267 17.5806 115.322 17.7432 115.422 17.8645C115.527 17.9858 115.668 18.0465 115.846 18.0465C116.023 18.0465 116.159 17.9858 116.253 17.8645C116.353 17.7432 116.411 17.5833 116.428 17.3848L116.96 17.5089C116.916 17.8232 116.803 18.0658 116.62 18.2367C116.437 18.4077 116.176 18.4931 115.837 18.4931C115.51 18.4931 115.239 18.416 115.023 18.2615C114.812 18.1072 114.69 17.859 114.657 17.5171L115.255 17.3765Z" fill="#00923A"/>
<path d="M112.362 20.7843L112.412 20.0233H112.387L112.096 20.8008L109.942 24.5725H109.526V18.7826H110.15V22.6287L110.092 23.3731H110.125L110.416 22.5956L112.578 18.7826H112.986V24.5725H112.362V20.7843Z" fill="#00923A"/>
<path d="M106.349 21.8926H106.049V24.5725H105.426V18.7826H106.049V21.479L106.34 21.3632L107.854 18.7826H108.569L107.047 21.2805L106.756 21.5452L107.097 21.876L108.785 24.5725H107.995L106.349 21.8926Z" fill="#00923A"/>
<path d="M104.66 24.3492C104.522 24.465 104.347 24.5477 104.137 24.5973C103.926 24.6469 103.704 24.6718 103.471 24.6718C103.177 24.6718 102.906 24.6166 102.656 24.5063C102.407 24.396 102.191 24.2223 102.008 23.9853C101.83 23.7426 101.692 23.4311 101.592 23.0506C101.492 22.6701 101.442 22.2124 101.442 21.6776C101.442 21.1262 101.497 20.6602 101.609 20.2798C101.725 19.8993 101.877 19.5905 102.066 19.3534C102.254 19.1163 102.47 18.9453 102.715 18.8406C102.964 18.7358 103.219 18.6834 103.48 18.6834C103.746 18.6834 103.965 18.7027 104.137 18.7413C104.314 18.7799 104.466 18.8268 104.594 18.8819L104.444 19.4444C104.333 19.3837 104.203 19.3368 104.053 19.3038C103.904 19.2707 103.732 19.2541 103.538 19.2541C103.343 19.2541 103.16 19.2982 102.989 19.3865C102.817 19.4692 102.665 19.607 102.532 19.8C102.399 19.9875 102.293 20.2356 102.216 20.5444C102.138 20.8532 102.099 21.2309 102.099 21.6776C102.099 22.4826 102.237 23.0892 102.515 23.4973C102.792 23.8997 103.16 24.101 103.621 24.101C103.809 24.101 103.979 24.0762 104.128 24.0266C104.278 23.9714 104.405 23.908 104.511 23.8364L104.66 24.3492Z" fill="#00923A"/>
<path d="M99.9277 21.9009H97.7822V24.5725H97.1586V18.7826H97.7822V21.3301H99.9277V18.7826H100.551V24.5725H99.9277V21.9009Z" fill="#00923A"/>
<path d="M95.4705 20.7843L95.5204 20.0233H95.4954L95.2044 20.8008L93.0506 24.5725H92.6348V18.7826H93.2585V22.6287L93.2003 23.3731H93.2335L93.5246 22.5956L95.6867 18.7826H96.0941V24.5725H95.4705V20.7843Z" fill="#00923A"/>
<path d="M91.93 25.6394H91.4976L91.3895 24.5725H88.0549V18.7826H88.6785V24.0017H90.691V18.7826H91.3146V24.0017H91.93V25.6394Z" fill="#00923A"/>
<path d="M86.3673 20.7843L86.4172 20.0233H86.3922L86.1012 20.8008L83.9474 24.5725H83.5316V18.7826H84.1553V22.6287L84.0971 23.3731H84.1303L84.4214 22.5956L86.5835 18.7826H86.991V24.5725H86.3673V20.7843Z" fill="#00923A"/>
<path d="M82.8242 25.6394H82.3835L82.2837 24.5725H79.0572L78.9574 25.6394H78.5166V24.0017H78.999C79.0322 23.9411 79.0852 23.7978 79.157 23.5716C79.2349 23.3456 79.3098 23.023 79.3815 22.6039C79.4594 22.1793 79.526 21.6527 79.5811 21.0241C79.6367 20.39 79.6616 19.6428 79.6559 18.7826H82.2172V24.0017H82.8242V25.6394ZM81.5935 24.0017V19.3533H80.2546C80.2271 20.572 80.1549 21.559 80.0384 22.3144C79.922 23.0699 79.7947 23.6323 79.6559 24.0017H81.5935Z" fill="#00923A"/>
<path d="M75.4596 18.7826H78.0452V19.3533H76.0827V21.3136H77.8872V21.8843H76.0827V24.0017H78.0868V24.5725H75.4596V18.7826Z" fill="#00923A"/>
<path d="M73.7735 20.7677L73.8484 19.891H73.8151L73.549 20.7098L72.3765 23.2243H72.1686L70.9378 20.7098L70.6801 19.891H70.6468L70.7632 20.7677V24.5725H70.1645V18.7826H70.6884L72.0937 21.6279L72.3016 22.3061H72.3183L72.5178 21.6196L73.8484 18.7826H74.3972V24.5725H73.7735V20.7677Z" fill="#00923A"/>
<path d="M73.5126 28.4119C74.5381 28.4119 75.2782 28.6952 75.7153 29.2806C76.1518 29.866 76.3603 30.6593 76.3603 31.6223V33.0576C76.3603 34.1152 76.1139 34.9084 75.6201 35.4184C75.1264 35.9281 74.3478 36.1927 73.285 36.1927H71.6327V41.6315H70.7596V28.4119H73.5126ZM73.285 35.3995C74.063 35.3995 74.6139 35.2105 74.9746 34.8518C75.3161 34.4929 75.4871 33.9264 75.4871 33.1143V31.5658C75.4871 30.8482 75.354 30.2816 75.0698 29.8473C74.7849 29.4129 74.2532 29.205 73.5126 29.205H71.6327V35.3995H73.285Z" fill="#E31F25"/>
<path fill-rule="evenodd" clip-rule="evenodd" d="M70.6842 41.706H71.7076V36.2671H73.2845C74.3588 36.2671 75.1607 35.9998 75.6737 35.4701C76.1861 34.9405 76.4351 34.1248 76.4351 33.0576V31.6223C76.4351 30.6495 76.2241 29.8387 75.775 29.2363C75.3187 28.6246 74.55 28.3375 73.5121 28.3375H70.6842V41.706ZM70.8339 41.5571V28.4864H73.5121C74.5251 28.4864 75.2376 28.7659 75.6545 29.325C76.0786 29.8934 76.2854 30.6691 76.2854 31.6223V33.0576C76.2854 34.1055 76.0406 34.8763 75.5661 35.3668C75.0916 35.8564 74.3369 36.1183 73.2845 36.1183H71.5579V41.5571H70.8339ZM71.5579 35.4739H73.2845C74.0739 35.4739 74.6472 35.2822 75.0271 34.9044L75.0287 34.903C75.3894 34.5239 75.5619 33.9345 75.5619 33.1143V31.5658C75.5619 30.8398 75.4273 30.2572 75.1321 29.8066C74.8276 29.342 74.2647 29.1306 73.5121 29.1306H71.5579V35.4739ZM71.7076 35.325V29.2795H73.5121C74.2408 29.2795 74.7418 29.4838 75.0063 29.8879C75.2808 30.3059 75.4123 30.8566 75.4123 31.5658V33.1143C75.4123 33.9178 75.2428 34.461 74.9206 34.7998C74.5791 35.1391 74.0511 35.325 73.2845 35.325H71.7076Z" fill="#E31F25"/>
<path d="M81.2749 28.4119C82.2811 28.4119 83.0217 28.6763 83.4583 29.205C83.8949 29.7339 84.123 30.4703 84.123 31.3959V32.5478C84.123 34.0774 83.4775 35.0028 82.2052 35.2861C82.8887 35.4372 83.3824 35.7394 83.6859 36.2114C83.9708 36.6837 84.123 37.269 84.123 37.9867V40.0453C84.123 40.3286 84.1418 40.5929 84.1797 40.8763C84.2176 41.1595 84.3128 41.4238 84.4453 41.6315H83.5342C83.4204 41.4238 83.3445 41.1972 83.3065 40.9516C83.2681 40.7062 83.2494 40.4039 83.2494 40.0453V37.9677C83.2494 37.5334 83.1927 37.1557 83.0784 36.8724C82.9646 36.5891 82.7936 36.3437 82.5851 36.1737C82.357 36.0038 82.0914 35.8904 81.7873 35.8148C81.4838 35.7581 81.1418 35.7205 80.7624 35.7205H79.3763V41.6315H78.5026V28.4119H81.2749ZM80.7811 34.9274C81.1798 34.9274 81.5218 34.8895 81.8253 34.8329C82.1293 34.7762 82.3949 34.6628 82.6039 34.4929C82.8128 34.3231 82.9646 34.0964 83.0784 33.8131C83.1927 33.5298 83.2494 33.1522 83.2494 32.7178V31.4713C83.2494 30.7536 83.0976 30.1872 82.7936 29.7905C82.49 29.3939 81.9776 29.205 81.2557 29.205H79.3763V34.9274H80.7811Z" fill="#E31F25"/>
<path fill-rule="evenodd" clip-rule="evenodd" d="M78.4272 41.706H79.4506V35.7949H80.7619C81.1356 35.7949 81.4724 35.8319 81.7712 35.8875C82.0664 35.9613 82.3211 36.0706 82.5384 36.2323C82.7353 36.3929 82.8991 36.6268 83.0087 36.9C83.1179 37.1713 83.1745 37.5387 83.1745 37.9677V40.0452C83.1745 40.4061 83.1932 40.7124 83.2322 40.9629C83.2712 41.2166 83.3502 41.4515 83.4682 41.6671L83.4895 41.706H84.5815L84.5082 41.5916C84.3819 41.3939 84.2904 41.1401 84.2535 40.8664C84.2161 40.586 84.1974 40.325 84.1974 40.0452V37.9867C84.1974 37.2584 84.043 36.6592 83.7499 36.1731L83.7488 36.1712C83.4749 35.7453 83.0539 35.4554 82.4952 35.285C83.0134 35.1198 83.4178 34.8334 83.7021 34.4268C84.0342 33.9526 84.1974 33.3224 84.1974 32.5478V31.3958C84.1974 30.4586 83.9666 29.7037 83.516 29.1578C83.0591 28.6048 82.292 28.3375 81.2744 28.3375H78.4272V41.706ZM78.5769 41.5571V28.4864H81.2744C82.2697 28.4864 82.9838 28.7479 83.4001 29.2523C83.8226 29.7641 84.0477 30.482 84.0477 31.3958V32.5478C84.0477 33.3029 83.8881 33.9001 83.5794 34.3418C83.2712 34.7821 82.8091 35.0752 82.1886 35.2135L81.8612 35.2864L82.1886 35.3588C82.858 35.5067 83.332 35.8001 83.6225 36.2506C83.8985 36.7089 84.0477 37.28 84.0477 37.9867V40.0452C84.0477 40.3321 84.0669 40.5997 84.1054 40.886C84.1381 41.1297 84.2114 41.3609 84.3153 41.5571H83.5789C83.4806 41.3679 83.4146 41.1625 83.3803 40.9403C83.3429 40.6999 83.3242 40.4017 83.3242 40.0452V37.9677C83.3242 37.5281 83.2665 37.14 83.148 36.8447C83.03 36.552 82.8523 36.2954 82.6319 36.1161L82.6298 36.1141C82.3918 35.9368 82.1163 35.82 81.8055 35.7426L81.8009 35.7415C81.4932 35.6841 81.1465 35.646 80.7619 35.646H79.3009V41.5571H78.5769ZM79.3009 35.0018H80.7806C81.1844 35.0018 81.5311 34.9634 81.8388 34.906M82.6506 34.5505C82.872 34.3709 83.0306 34.1327 83.148 33.8407C83.2665 33.5455 83.3242 33.1575 83.3242 32.7178V31.4712C83.3242 30.7445 83.1704 30.1598 82.8528 29.7455C82.529 29.3227 81.9885 29.1306 81.2557 29.1306H79.3009V35.0018M79.4506 34.8529V29.2795H81.2557C81.9656 29.2795 82.45 29.4652 82.7338 29.8357C83.0238 30.2146 83.1745 30.7628 83.1745 31.4712V32.7178C83.1745 33.1469 83.1179 33.5141 83.0087 33.7855C82.8985 34.0602 82.753 34.2753 82.556 34.4352C82.3591 34.5958 82.1054 34.7048 81.8113 34.7597C81.5119 34.8155 81.1746 34.8529 80.7806 34.8529H79.4506Z" fill="#E31F25"/>
<path d="M86.5684 31.6412C86.5684 31.1692 86.6256 30.7159 86.7394 30.3004C86.8532 29.904 87.0242 29.545 87.2711 29.2429C87.4993 28.9596 87.8028 28.7141 88.1635 28.5441C88.5242 28.3741 88.9613 28.2987 89.4737 28.2987C89.9862 28.2987 90.4233 28.3741 90.8027 28.5441C91.1634 28.7141 91.4674 28.9596 91.7143 29.2429C91.9612 29.545 92.1317 29.904 92.246 30.3004C92.3598 30.7159 92.4165 31.1692 92.4165 31.6412V38.4022C92.4165 38.8743 92.3598 39.3276 92.246 39.7242C92.1317 40.1396 91.9612 40.4985 91.7143 40.7817C91.4674 41.0839 91.1634 41.3105 90.8027 41.4805C90.4233 41.6693 89.9862 41.7448 89.4737 41.7448C88.9613 41.7448 88.5242 41.6693 88.1635 41.4805C87.8028 41.3105 87.4993 41.0839 87.2711 40.7817C87.0242 40.4985 86.8532 40.1396 86.7394 39.7242C86.6256 39.3276 86.5684 38.8743 86.5684 38.4022V31.6412ZM87.4421 38.459C87.4421 39.1766 87.5939 39.762 87.9166 40.2339C88.2207 40.7062 88.7331 40.9516 89.4737 40.9516C90.2144 40.9516 90.746 40.7062 91.0688 40.2339C91.3916 39.762 91.5433 39.1766 91.5433 38.459V31.5846C91.5433 30.8669 91.3916 30.2626 91.0688 29.7905C90.746 29.3184 90.2144 29.0917 89.4737 29.0917C88.7331 29.0917 88.2207 29.3184 87.9166 29.7905C87.5939 30.2626 87.4421 30.8669 87.4421 31.5846V38.459Z" fill="#E31F25"/>
<path fill-rule="evenodd" clip-rule="evenodd" d="M88.1307 41.5471C88.506 41.743 88.9556 41.8193 89.4748 41.8193C89.994 41.8193 90.443 41.7428 90.8365 41.5475C91.2055 41.3735 91.5179 41.1406 91.7725 40.8295C92.0277 40.5359 92.2029 40.1664 92.3188 39.7442C92.4347 39.34 92.4924 38.8798 92.4924 38.4022V31.6412C92.4924 31.1633 92.4347 30.7034 92.3188 30.2808V30.2799C92.2024 29.8761 92.0277 29.5075 91.7731 29.196L91.7715 29.1941C91.5189 28.9041 91.2071 28.6518 90.8355 28.4768L90.8344 28.4761C90.442 28.3007 89.9945 28.2242 89.4748 28.2242C88.955 28.2242 88.5065 28.3005 88.1323 28.4768C87.7612 28.6517 87.4488 28.9043 87.2139 29.1962C87.2139 29.1961 87.2139 29.1963 87.2139 29.1962L87.2721 29.2429L87.2134 29.1964C87.2139 29.1964 87.2139 29.1963 87.2139 29.1962C86.9593 29.5077 86.7841 29.8762 86.6682 30.2799V30.2808C86.5523 30.7034 86.4946 31.1633 86.4946 31.6412V38.4022C86.4946 38.8798 86.5523 39.3399 86.6682 39.7442C86.7841 40.1659 86.9587 40.535 87.2139 40.8284C87.2134 40.8277 87.2129 40.827 87.2124 40.8263L87.2721 40.7817L87.2155 40.8305C87.215 40.8298 87.2144 40.8291 87.2139 40.8284C87.4499 41.1407 87.7628 41.3735 88.1307 41.5471ZM88.1307 41.5471C88.1307 41.5469 88.1302 41.5466 88.1297 41.5464L88.1645 41.4805L88.1323 41.5478C88.1318 41.5476 88.1313 41.5474 88.1307 41.5471ZM89.4748 41.6704C88.9686 41.6704 88.5455 41.5956 88.1993 41.4146L88.1967 41.4132L88.1962 41.4132C87.8444 41.2474 87.5512 41.0277 87.3319 40.737L87.3288 40.7328C87.0907 40.4604 86.9244 40.1126 86.8127 39.7046L86.8122 39.7038C86.7004 39.3149 86.6443 38.8687 86.6443 38.4022V31.6412C86.6443 31.1752 86.7004 30.7287 86.8122 30.3204C86.9244 29.9316 87.0907 29.5824 87.3303 29.2899C87.5512 29.0153 87.8459 28.7764 88.1967 28.6113C88.5439 28.4476 88.9686 28.3731 89.4748 28.3731C89.9794 28.3731 90.4051 28.4473 90.772 28.6116C91.1218 28.7765 91.417 29.0148 91.6577 29.2908C91.8962 29.5831 92.0631 29.932 92.1743 30.3204C92.2866 30.7287 92.3427 31.1752 92.3427 31.6412V38.4022C92.3427 38.8687 92.2866 39.3149 92.1748 39.7038L92.1743 39.7046C92.0626 40.1126 91.8957 40.4605 91.6587 40.7329L91.6572 40.7347C91.4176 41.0274 91.1234 41.2475 90.7715 41.4133L90.77 41.4139C90.4041 41.5957 89.98 41.6704 89.4748 41.6704ZM89.4748 40.8772C88.7518 40.8772 88.2669 40.639 87.9805 40.1938L87.9795 40.1921C87.6671 39.7357 87.518 39.1661 87.518 38.4589V31.5846C87.518 30.8769 87.6676 30.2886 87.9795 29.8324L87.9805 29.8307C88.2664 29.3867 88.7497 29.1661 89.4748 29.1661C90.1993 29.1661 90.7029 29.387 91.0075 29.8324C91.3193 30.2886 91.469 30.8769 91.469 31.5846V38.4589C91.469 39.1661 91.3193 39.7357 91.0075 40.1921C90.7024 40.6387 90.1972 40.8772 89.4748 40.8772ZM87.8553 40.2749C88.1765 40.7736 88.7165 41.0261 89.4748 41.0261C90.2326 41.0261 90.7913 40.7736 91.1312 40.2758C91.4649 39.7882 91.6187 39.187 91.6187 38.4589V31.5846C91.6187 30.8569 91.4649 30.2367 91.1312 29.7487C90.7902 29.2497 90.231 29.0172 89.4748 29.0172C88.7186 29.0172 88.177 29.2497 87.8553 29.7495C87.5221 30.2374 87.3683 30.8573 87.3683 31.5846V38.4589C87.3683 39.1866 87.5221 39.7875 87.8553 40.2749Z" fill="#E31F25"/>
<path d="M97.4834 28.2987C97.9964 28.2987 98.433 28.3741 98.7937 28.5441C99.1544 28.7141 99.4392 28.9596 99.686 29.2429C99.9137 29.545 100.085 29.904 100.199 30.3004C100.294 30.7159 100.351 31.1692 100.351 31.6412V31.9812C100.351 32.6422 100.199 33.2089 99.895 33.6808C99.5722 34.1719 99.1351 34.5118 98.5468 34.7007C99.1544 34.8707 99.6102 35.2105 99.9137 35.6828C100.199 36.1737 100.351 36.7404 100.351 37.3824V38.4022C100.351 38.8743 100.294 39.3276 100.199 39.7242C100.085 40.1396 99.9137 40.4985 99.686 40.7817C99.4392 41.0839 99.1544 41.3105 98.7937 41.4805C98.433 41.6693 97.9964 41.7448 97.4834 41.7448C96.9709 41.7448 96.5531 41.6693 96.1924 41.4805C95.8317 41.3105 95.5282 41.0839 95.3 40.7817C95.0531 40.4985 94.8821 40.1396 94.7875 39.7242C94.6732 39.3276 94.6165 38.8743 94.6165 38.4022V37.3067H95.4518V38.459C95.4518 38.8177 95.4897 39.1387 95.5661 39.4409C95.6227 39.743 95.7366 40.0073 95.9076 40.2339C96.0786 40.4606 96.2875 40.6306 96.5338 40.7628C96.7812 40.895 97.1035 40.9516 97.4647 40.9516C98.2048 40.9516 98.7178 40.7062 99.0213 40.2339C99.3254 39.762 99.4771 39.1386 99.4771 38.3833V37.3634C99.4771 36.6837 99.3061 36.136 98.9454 35.7394C98.5847 35.3428 98.0723 35.1351 97.4267 35.1351H96.6861V34.3419H97.4834C98.0723 34.3419 98.566 34.1342 98.9267 33.6998C99.2874 33.2843 99.4771 32.7745 99.4771 32.1512V31.6602C99.4771 30.9047 99.3254 30.2816 99.0213 29.8094C98.7178 29.3373 98.2048 29.0917 97.4647 29.0917C96.7241 29.0917 96.2111 29.3184 95.9076 29.7905C95.5848 30.2626 95.433 30.8669 95.433 31.5846V32.3022H94.6358V31.6223C94.6358 31.1503 94.6924 30.697 94.8062 30.3004C94.9014 29.904 95.0723 29.545 95.3 29.2429C95.5282 28.9596 95.8317 28.7141 96.1924 28.5441C96.5531 28.3741 96.9709 28.2987 97.4834 28.2987Z" fill="#00923A"/>
<path fill-rule="evenodd" clip-rule="evenodd" d="M96.1586 41.5471C96.5333 41.7429 96.9642 41.8193 97.4834 41.8193C98.0016 41.8193 98.4517 41.743 98.8269 41.5471C99.1975 41.3723 99.4906 41.1388 99.7437 40.8286L99.7443 40.8282C99.9797 40.5353 100.154 40.1666 100.271 39.7438L100.271 39.7414C100.367 39.3392 100.425 38.8801 100.425 38.4022V37.3823C100.425 36.7282 100.27 36.1486 99.9781 35.6456L99.9766 35.6426C99.6985 35.2106 99.2978 34.8865 98.7765 34.6965C99.2791 34.4927 99.6642 34.1672 99.9573 33.7216L99.9579 33.721C100.27 33.235 100.425 32.6538 100.425 31.9812V31.6412C100.425 31.1633 100.367 30.7045 100.271 30.2838L100.27 30.2799C100.154 29.8761 99.9797 29.5086 99.7458 29.1983L99.7427 29.194C99.4906 28.9054 99.198 28.6524 98.8254 28.4768C98.4512 28.3005 98.0026 28.2242 97.4834 28.2242C96.9631 28.2242 96.5338 28.3007 96.1602 28.4768C95.7891 28.6517 95.4762 28.9044 95.2413 29.1964L95.2397 29.1982C95.0058 29.5082 94.8312 29.876 94.7335 30.2815C94.6181 30.6855 94.5604 31.1453 94.5604 31.6223V32.3767H95.5074V31.5846C95.5074 30.8769 95.6576 30.2886 95.9694 29.8324L95.9704 29.8307C96.2558 29.3868 96.7397 29.1661 97.4642 29.1661C98.1866 29.1661 98.6715 29.4044 98.9584 29.8495C99.2521 30.3061 99.4017 30.9139 99.4017 31.6602V32.1512C99.4017 32.758 99.2178 33.2501 98.8695 33.6512L98.8685 33.6524C98.5239 34.0675 98.0525 34.2674 97.4834 34.2674H96.6108V35.2095H97.4262C98.0546 35.2095 98.5457 35.4111 98.8898 35.7893C99.2344 36.1681 99.4017 36.6957 99.4017 37.3634V38.3833C99.4017 39.1294 99.2521 39.7374 98.9584 40.1938C98.6715 40.639 98.1866 40.8772 97.4642 40.8772C97.1097 40.8772 96.801 40.8213 96.5692 40.6973C96.3311 40.5696 96.131 40.4063 95.9673 40.1893C95.8036 39.9725 95.6939 39.719 95.6394 39.4272L95.6383 39.4228C95.564 39.1272 95.5266 38.8123 95.5266 38.4589V37.2323H94.5412V38.4022C94.5412 38.8792 94.5989 39.3388 94.7148 39.7427C94.8114 40.166 94.9866 40.5352 95.2413 40.8284C95.4777 41.1407 95.7906 41.3735 96.1586 41.5471ZM97.4834 41.6704C96.9777 41.6704 96.5733 41.5958 96.2272 41.4146L96.2241 41.4132C95.8722 41.2473 95.5791 41.0277 95.3598 40.737L95.3566 40.7328C95.1191 40.4604 94.9528 40.1134 94.8603 39.7077L94.8593 39.7037C94.7475 39.3149 94.6909 38.8687 94.6909 38.4022V37.3812H95.3769V38.4589C95.3769 38.8222 95.4154 39.1486 95.4923 39.4568C95.5515 39.7683 95.6695 40.0427 95.8473 40.2786C96.0255 40.5148 96.2428 40.6915 96.4985 40.8284C96.7604 40.9686 97.0972 41.0261 97.4642 41.0261C98.2225 41.0261 98.763 40.7733 99.0842 40.2741C99.3981 39.7865 99.5514 39.1478 99.5514 38.3833V37.3634C99.5514 36.6717 99.3773 36.1038 99.0005 35.6894C98.6232 35.2745 98.0889 35.0606 97.4262 35.0606H96.7604V34.4163H97.4834C98.091 34.4163 98.6066 34.2009 98.9834 33.7478C99.3565 33.3179 99.5514 32.7907 99.5514 32.1512V31.6602C99.5514 30.8955 99.3981 30.2571 99.0842 29.7692C98.763 29.2701 98.2225 29.0172 97.4642 29.0172C96.7085 29.0172 96.1669 29.2497 95.8447 29.7495C95.5115 30.2374 95.3577 30.8573 95.3577 31.5846V32.2278H94.7101V31.6223C94.7101 31.156 94.7662 30.7096 94.878 30.3208L94.879 30.3176C94.9715 29.9314 95.1378 29.5821 95.3587 29.2885C95.5796 29.0143 95.8743 28.7762 96.2241 28.6113C96.5718 28.4475 96.9777 28.3731 97.4834 28.3731C97.9891 28.3731 98.4137 28.4476 98.7614 28.6113C99.1091 28.7754 99.3856 29.0127 99.6273 29.2897C99.8477 29.5825 100.014 29.9316 100.126 30.3189C100.219 30.7288 100.275 31.1759 100.275 31.6412V31.9812C100.275 32.6304 100.126 33.1824 99.8316 33.6404C99.5182 34.1172 99.0956 34.4463 98.5234 34.6299L98.2874 34.7056L98.526 34.7724C99.1164 34.9375 99.5561 35.2661 99.8498 35.7214C100.127 36.2 100.275 36.7531 100.275 37.3823V38.4022C100.275 38.8681 100.219 39.3151 100.126 39.7058C100.014 40.1131 99.8472 40.4617 99.6273 40.7349C99.3872 41.0287 99.1117 41.2482 98.7614 41.4133L98.7583 41.4146C98.4122 41.5956 97.9891 41.6704 97.4834 41.6704Z" fill="#00923A"/>
<path d="M109.651 43.4634V41.6315H103.31V43.4634H102.455V40.8383H103.366C103.632 40.5552 103.803 40.2529 103.879 39.8943C103.955 39.5353 104.012 39.1576 104.031 38.7233L104.563 28.4119H109.423V40.8383H110.525V43.4634H109.651ZM104.885 38.7233C104.867 39.1765 104.81 39.5729 104.752 39.913C104.677 40.2718 104.506 40.5739 104.259 40.8383H108.531V29.205H105.379L104.885 38.7233Z" fill="#00923A"/>
<path fill-rule="evenodd" clip-rule="evenodd" d="M102.38 43.5379H103.384V41.7059H109.576V43.5379H110.599V40.7639H109.498V28.3375H104.492L103.956 38.7194V38.72C103.937 39.1495 103.881 39.5231 103.806 39.8789C103.735 40.2125 103.579 40.496 103.334 40.7639H102.38V43.5379ZM102.53 43.389V40.9128H103.399L103.421 40.8891C103.695 40.5976 103.873 40.2835 103.952 39.9096C104.029 39.5475 104.086 39.1658 104.105 38.7268C104.105 38.7267 104.105 38.7269 104.105 38.7268L104.633 28.4864H109.348V40.9128H110.45V43.389H109.726V41.557H103.234V43.389H102.53ZM104.087 40.9128H108.606V29.1306H105.308L104.811 38.7194V38.7202C104.792 39.1684 104.735 39.5608 104.679 39.8991C104.606 40.2426 104.442 40.5323 104.204 40.7877L104.087 40.9128ZM104.422 40.7639C104.619 40.5209 104.758 40.2462 104.826 39.9283L104.826 39.9252C104.883 39.5839 104.941 39.1842 104.96 38.7267C104.96 38.7266 104.96 38.7269 104.96 38.7267L105.45 29.2795H108.456V40.7639H104.422Z" fill="#00923A"/>
<path d="M112.648 31.6412C112.648 31.1692 112.705 30.7159 112.819 30.3004C112.933 29.904 113.104 29.545 113.35 29.2429C113.579 28.9596 113.882 28.7141 114.243 28.5441C114.604 28.3741 115.04 28.2987 115.553 28.2987C116.066 28.2987 116.503 28.3741 116.882 28.5441C117.243 28.7141 117.547 28.9596 117.794 29.2429C118.04 29.545 118.211 29.904 118.325 30.3004C118.439 30.7159 118.496 31.1692 118.496 31.6412V38.4022C118.496 38.8743 118.439 39.3276 118.325 39.7242C118.211 40.1396 118.04 40.4985 117.794 40.7817C117.547 41.0839 117.243 41.3105 116.882 41.4805C116.503 41.6693 116.066 41.7448 115.553 41.7448C115.04 41.7448 114.604 41.6693 114.243 41.4805C113.882 41.3105 113.579 41.0839 113.35 40.7817C113.104 40.4985 112.933 40.1396 112.819 39.7242C112.705 39.3276 112.648 38.8743 112.648 38.4022V31.6412ZM113.521 38.459C113.521 39.1766 113.673 39.762 113.996 40.2339C114.3 40.7062 114.812 40.9516 115.553 40.9516C116.294 40.9516 116.825 40.7062 117.148 40.2339C117.47 39.762 117.623 39.1766 117.623 38.459V31.5846C117.623 30.8669 117.47 30.2626 117.148 29.7905C116.825 29.3184 116.294 29.0917 115.553 29.0917C114.812 29.0917 114.3 29.3184 113.996 29.7905C113.673 30.2626 113.521 30.8669 113.521 31.5846V38.459Z" fill="#00923A"/>
<path fill-rule="evenodd" clip-rule="evenodd" d="M114.209 41.5471C114.584 41.743 115.034 41.8193 115.553 41.8193C116.072 41.8193 116.521 41.7428 116.915 41.5475C117.283 41.3735 117.596 41.1406 117.851 40.8295C118.106 40.5359 118.281 40.1664 118.397 39.7442C118.513 39.3399 118.571 38.8798 118.571 38.4022V31.6412C118.571 31.1633 118.513 30.7034 118.397 30.2808L118.397 30.2799C118.281 29.8761 118.106 29.5075 117.851 29.196L117.85 29.1941C117.597 28.9041 117.285 28.6518 116.914 28.4768L116.913 28.4761C116.52 28.3007 116.073 28.2242 115.553 28.2242C115.033 28.2242 114.585 28.3005 114.211 28.4768C113.84 28.6517 113.527 28.9043 113.292 29.1962C113.038 29.5077 112.862 29.8762 112.747 30.2799V30.2808C112.631 30.7034 112.573 31.1633 112.573 31.6412V38.4022C112.573 38.8798 112.63 39.3399 112.747 39.7442C112.862 40.1659 113.037 40.535 113.292 40.8284C113.528 41.1407 113.841 41.3735 114.209 41.5471ZM115.553 41.6704C115.047 41.6704 114.623 41.5956 114.278 41.4147L114.275 41.4132C113.923 41.2473 113.63 41.0277 113.41 40.737L113.407 40.7328L113.407 40.7329C113.169 40.4605 113.003 40.1126 112.891 39.7046L112.89 39.7037C112.779 39.3149 112.723 38.8687 112.723 38.4022V31.6412C112.723 31.1752 112.779 30.7287 112.89 30.3204C113.002 29.9316 113.169 29.5824 113.408 29.2899L113.409 29.2895C113.63 29.0149 113.924 28.7764 114.275 28.6113C114.622 28.4476 115.047 28.3731 115.553 28.3731C116.058 28.3731 116.483 28.4473 116.85 28.6116C117.2 28.7765 117.495 29.0148 117.736 29.2908C117.975 29.5831 118.141 29.932 118.253 30.3204C118.365 30.7287 118.421 31.1752 118.421 31.6412V38.4022C118.421 38.8687 118.364 39.3149 118.253 39.7037V39.7046C118.141 40.1126 117.974 40.4605 117.737 40.7329L117.735 40.7347C117.496 41.0274 117.202 41.2475 116.85 41.4133L116.848 41.4139C116.482 41.5957 116.058 41.6704 115.553 41.6704ZM115.553 40.8772C114.83 40.8772 114.345 40.639 114.059 40.1938L114.058 40.1921C113.745 39.7357 113.596 39.1661 113.596 38.4589V31.5846C113.596 30.8769 113.746 30.2886 114.058 29.8324L114.059 29.8307C114.345 29.3867 114.828 29.1661 115.553 29.1661C116.278 29.1661 116.781 29.387 117.086 29.8324C117.398 30.2886 117.547 30.8769 117.547 31.5846V38.4589C117.547 39.1661 117.398 39.7357 117.086 40.1921C116.78 40.6387 116.276 40.8772 115.553 40.8772ZM113.934 40.2749C114.255 40.7736 114.795 41.0261 115.553 41.0261C116.311 41.0261 116.869 40.7736 117.209 40.2758C117.543 39.7882 117.697 39.187 117.697 38.4589V31.5846C117.697 30.8569 117.543 30.2367 117.209 29.7487C116.869 29.2497 116.309 29.0172 115.553 29.0172C114.796 29.0172 114.255 29.2497 113.934 29.7495C113.6 30.2374 113.446 30.8573 113.446 31.5846V38.4589C113.446 39.1866 113.6 39.7875 113.934 40.2749Z" fill="#00923A"/>
<path d="M123.486 28.4119C124.512 28.4119 125.252 28.6952 125.689 29.2806C126.126 29.866 126.335 30.6593 126.335 31.6223V33.0576C126.335 34.1152 126.088 34.9084 125.594 35.4184C125.101 35.9281 124.322 36.1927 123.259 36.1927H121.607V41.6315H120.733V28.4119H123.486ZM123.259 35.3995C124.037 35.3995 124.588 35.2105 124.948 34.8518C125.29 34.4929 125.461 33.9264 125.461 33.1143V31.5658C125.461 30.8482 125.328 30.2816 125.043 29.8473C124.759 29.4129 124.227 29.205 123.486 29.205H121.607V35.3995H123.259Z" fill="#00923A"/>
<path fill-rule="evenodd" clip-rule="evenodd" d="M120.658 41.706H121.681V36.2671H123.258C124.333 36.2671 125.134 35.9998 125.648 35.4701C126.16 34.9405 126.409 34.1248 126.409 33.0576V31.6223C126.409 30.6495 126.198 29.8387 125.749 29.2363C125.292 28.6246 124.524 28.3375 123.486 28.3375H120.658V41.706ZM120.808 41.5571V28.4864H123.486C124.499 28.4864 125.211 28.7659 125.629 29.325C126.052 29.8934 126.259 30.6691 126.259 31.6223V33.0576C126.259 34.1055 126.015 34.8763 125.54 35.3668C125.066 35.8564 124.311 36.1183 123.258 36.1183H121.532V41.5571H120.808ZM121.532 35.4739H123.258C124.048 35.4739 124.621 35.2822 125.001 34.9044L125.002 34.903C125.364 34.5239 125.536 33.9345 125.536 33.1143V31.5658C125.536 30.8398 125.401 30.2572 125.106 29.8066C124.801 29.342 124.238 29.1306 123.486 29.1306H121.532V35.4739ZM121.681 35.325V29.2795H123.486C124.215 29.2795 124.716 29.4838 124.981 29.8879C125.254 30.3059 125.386 30.8565 125.386 31.5658V33.1143C125.386 33.9178 125.217 34.461 124.894 34.7998C124.553 35.1391 124.025 35.325 123.258 35.325H121.681Z" fill="#00923A"/>
<path d="M128.382 31.6412C128.382 31.1692 128.439 30.7159 128.553 30.3004C128.667 29.904 128.838 29.545 129.085 29.2429C129.313 28.9596 129.616 28.7141 129.977 28.5441C130.338 28.3741 130.775 28.2987 131.287 28.2987C131.8 28.2987 132.237 28.3741 132.616 28.5441C132.977 28.7141 133.281 28.9596 133.528 29.2429C133.775 29.545 133.946 29.904 134.059 30.3004C134.173 30.7159 134.23 31.1692 134.23 31.6412V38.4022C134.23 38.8743 134.173 39.3276 134.059 39.7242C133.946 40.1396 133.775 40.4985 133.528 40.7817C133.281 41.0839 132.977 41.3105 132.616 41.4805C132.237 41.6693 131.8 41.7448 131.287 41.7448C130.775 41.7448 130.338 41.6693 129.977 41.4805C129.616 41.3105 129.313 41.0839 129.085 40.7817C128.838 40.4985 128.667 40.1396 128.553 39.7242C128.439 39.3276 128.382 38.8743 128.382 38.4022V31.6412ZM129.255 38.459C129.255 39.1766 129.408 39.762 129.73 40.2339C130.034 40.7062 130.546 40.9516 131.287 40.9516C132.028 40.9516 132.559 40.7062 132.882 40.2339C133.205 39.762 133.357 39.1766 133.357 38.459V31.5846C133.357 30.8669 133.205 30.2626 132.882 29.7905C132.559 29.3184 132.028 29.0917 131.287 29.0917C130.546 29.0917 130.034 29.3184 129.73 29.7905C129.408 30.2626 129.255 30.8669 129.255 31.5846V38.459Z" fill="#00923A"/>
<path fill-rule="evenodd" clip-rule="evenodd" d="M129.944 41.5471C130.319 41.743 130.768 41.8193 131.287 41.8193C131.806 41.8193 132.255 41.7428 132.649 41.5475C133.018 41.3735 133.33 41.1406 133.585 40.8295C133.841 40.5359 134.015 40.1664 134.131 39.7442C134.247 39.34 134.305 38.8798 134.305 38.4022V31.6412C134.305 31.1633 134.247 30.7034 134.131 30.2808V30.2799C134.015 29.8761 133.84 29.5075 133.585 29.196L133.584 29.1941L133.584 29.1942C133.331 28.9042 133.019 28.6518 132.648 28.4768L132.647 28.4761C132.255 28.3007 131.807 28.2242 131.287 28.2242C130.767 28.2242 130.319 28.3005 129.945 28.4768C129.574 28.6517 129.261 28.9043 129.026 29.1962C128.772 29.5077 128.597 29.8762 128.481 30.2799L128.481 30.2808C128.365 30.7034 128.307 31.1633 128.307 31.6412V38.4022C128.307 38.8798 128.365 39.3399 128.481 39.7442C128.596 40.1659 128.771 40.535 129.026 40.8284C129.026 40.8277 129.025 40.827 129.025 40.8263L129.084 40.7817L129.028 40.8305C129.027 40.8298 129.027 40.8291 129.026 40.8284C129.262 41.1407 129.576 41.3735 129.944 41.5471ZM129.944 41.5471C129.943 41.5469 129.943 41.5466 129.942 41.5464L129.977 41.4805L129.945 41.5478C129.945 41.5476 129.944 41.5474 129.944 41.5471ZM131.287 41.6704C130.781 41.6704 130.358 41.5956 130.012 41.4146L130.009 41.4132C129.657 41.2473 129.364 41.0277 129.144 40.737L129.141 40.7328C128.904 40.4604 128.737 40.1126 128.625 39.7046L128.624 39.7038C128.513 39.3149 128.457 38.8687 128.457 38.4022V31.6412C128.457 31.1752 128.513 30.7287 128.625 30.3204C128.737 29.9316 128.904 29.5824 129.143 29.2899L129.143 29.2895C129.364 29.0149 129.659 28.7764 130.009 28.6113C130.356 28.4476 130.781 28.3731 131.287 28.3731C131.792 28.3731 132.217 28.4473 132.585 28.6116C132.934 28.7765 133.229 29.0148 133.47 29.2908C133.709 29.5831 133.875 29.9319 133.987 30.3204C134.099 30.7287 134.155 31.1752 134.155 31.6412V38.4022C134.155 38.8687 134.099 39.3149 133.987 39.7038L133.987 39.7046C133.875 40.1126 133.709 40.4605 133.471 40.7329L133.469 40.7347C133.23 41.0274 132.936 41.2475 132.584 41.4133L132.583 41.4139C132.216 41.5957 131.792 41.6704 131.287 41.6704ZM131.287 40.8772C130.564 40.8772 130.079 40.639 129.793 40.1938L129.792 40.1921C129.48 39.7357 129.33 39.1661 129.33 38.4589V31.5846C129.33 30.8769 129.48 30.2886 129.792 29.8324L129.793 29.8307C130.079 29.3867 130.563 29.1661 131.287 29.1661C132.012 29.1661 132.516 29.387 132.82 29.8324C133.132 30.2886 133.282 30.8769 133.282 31.5846V38.4589C133.282 39.1661 133.132 39.7357 132.82 40.1921C132.515 40.6387 132.01 40.8772 131.287 40.8772ZM129.668 40.2749C129.989 40.7736 130.529 41.0261 131.287 41.0261C132.045 41.0261 132.604 40.7736 132.943 40.2758C133.277 39.7882 133.432 39.187 133.432 38.4589V31.5846C133.432 30.8569 133.277 30.2367 132.943 29.7487C132.603 29.2497 132.043 29.0172 131.287 29.0172C130.531 29.0172 129.99 29.2497 129.668 29.7495C129.334 30.2374 129.181 30.8573 129.181 31.5846V38.4589C129.181 39.1866 129.334 39.7875 129.668 40.2749Z" fill="#00923A"/>
<path d="M139.259 28.4119C140.265 28.4119 140.967 28.6573 141.366 29.1296C141.765 29.6016 141.974 30.3004 141.974 31.2259V31.9812C141.974 32.6988 141.86 33.2842 141.613 33.7185C141.366 34.1531 140.892 34.4552 140.227 34.5875C140.948 34.7195 141.461 35.0407 141.765 35.5317C142.069 36.0414 142.221 36.6647 142.221 37.4201V38.5721C142.221 39.5353 141.993 40.2719 141.537 40.8195C141.082 41.3672 140.341 41.6315 139.315 41.6315H136.467V28.4119H139.259ZM138.822 34.2475C139.221 34.2475 139.562 34.2097 139.847 34.1531C140.132 34.0964 140.36 33.9831 140.55 33.8131C140.74 33.6619 140.873 33.4542 140.967 33.1709C141.062 32.9065 141.1 32.5666 141.1 32.1512V31.3013C141.1 30.6026 140.967 30.0926 140.702 29.7339C140.436 29.375 139.942 29.205 139.24 29.205H137.341V34.2475H138.822ZM139.315 40.8383C140.056 40.8383 140.569 40.6495 140.892 40.2529C141.195 39.8563 141.347 39.2896 141.347 38.5532V37.3634C141.347 36.5137 141.157 35.9094 140.759 35.5505C140.36 35.2105 139.771 35.0407 138.993 35.0407H137.341V40.8383H139.315Z" fill="#00923A"/>
<path fill-rule="evenodd" clip-rule="evenodd" d="M136.392 41.706H139.315C140.352 41.706 141.119 41.4385 141.595 40.867C142.064 40.3021 142.295 39.5469 142.295 38.5721V37.4201C142.295 36.6548 142.141 36.0176 141.829 35.4938L141.828 35.4927C141.557 35.0535 141.126 34.748 140.546 34.5845C141.07 34.4247 141.458 34.1425 141.678 33.7552C141.934 33.3052 142.048 32.7053 142.048 31.9812V31.2259C142.048 30.2905 141.837 29.572 141.423 29.0817C141.004 28.5849 140.274 28.3375 139.258 28.3375H136.392V41.706ZM136.542 41.5571V28.4864H139.258C140.255 28.4864 140.931 28.7298 141.309 29.1775C141.692 29.6312 141.899 30.3102 141.899 31.2259V31.9812C141.899 32.6925 141.785 33.2633 141.548 33.6819C141.314 34.092 140.863 34.385 140.212 34.5144L139.83 34.5905L140.213 34.6607C140.918 34.7898 141.41 35.1014 141.701 35.5702C141.996 36.0657 142.145 36.675 142.145 37.4201V38.5721C142.145 39.5237 141.92 40.2416 141.479 40.7721C141.043 41.2958 140.329 41.5571 139.315 41.5571H136.542ZM137.266 40.9128H139.315C140.068 40.9128 140.606 40.7207 140.95 40.2998L140.951 40.298C141.268 39.8836 141.421 39.2985 141.421 38.5532V37.3634C141.421 36.5058 141.231 35.8752 140.809 35.4953L140.807 35.4939C140.389 35.138 139.781 34.9662 138.993 34.9662H137.266V40.9128ZM137.415 40.7639V35.1151H138.993C139.761 35.1151 140.329 35.2829 140.709 35.6064C141.084 35.9444 141.272 36.5223 141.272 37.3634V38.5532C141.272 39.2802 141.122 39.8282 140.833 40.2069C140.529 40.5787 140.044 40.7639 139.315 40.7639H137.415ZM137.266 34.3219H138.822C139.225 34.3219 139.572 34.2837 139.862 34.2261C140.158 34.1671 140.398 34.0486 140.598 33.8699C140.801 33.7078 140.94 33.4871 141.038 33.1952C141.137 32.919 141.175 32.5694 141.175 32.1512V31.3013C141.175 30.5946 141.04 30.0664 140.761 29.6897C140.474 29.3021 139.951 29.1306 139.239 29.1306H137.266V34.3219ZM137.415 34.173V29.2795H139.239C139.933 29.2795 140.397 29.4479 140.641 29.778C140.893 30.1189 141.025 30.6106 141.025 31.3013V32.1512C141.025 32.5634 140.987 32.8934 140.897 33.1459L140.896 33.1474C140.805 33.4208 140.679 33.6149 140.503 33.755L140.499 33.7577C140.32 33.9181 140.105 34.0259 139.832 34.0801C139.552 34.1358 139.216 34.173 138.822 34.173H137.415Z" fill="#00923A"/>
<path d="M146.945 33.8508C148.028 33.8508 148.806 34.1151 149.3 34.6252C149.793 35.1351 150.04 35.9281 150.04 36.9858V38.421C150.04 38.8933 149.984 39.3276 149.888 39.7242C149.775 40.1207 149.604 40.4606 149.375 40.744C149.148 41.0273 148.863 41.2539 148.502 41.4049C148.142 41.5559 147.686 41.6315 147.173 41.6315H144.439V28.4119H145.313V33.8508H146.945ZM147.173 40.8383C147.914 40.8383 148.445 40.6306 148.73 40.1963C149.015 39.762 149.167 39.1953 149.167 38.4777V36.9291C149.167 36.1171 148.996 35.5317 148.635 35.1728C148.275 34.814 147.724 34.6441 146.945 34.6441H145.313V40.8383H147.173Z" fill="#00923A"/>
<path fill-rule="evenodd" clip-rule="evenodd" d="M144.364 41.706H147.173C147.692 41.706 148.159 41.6295 148.531 41.4735C148.904 41.3173 149.199 41.0827 149.434 40.7904C149.669 40.4984 149.844 40.1493 149.96 39.7447L149.961 39.7414C150.057 39.3394 150.115 38.8993 150.115 38.421V36.9857C150.115 35.9185 149.866 35.1029 149.354 34.5735C148.84 34.0433 148.038 33.7764 146.945 33.7764H145.387V28.3375H144.364V41.706ZM144.514 41.5571V28.4864H145.237V33.9253H146.945C148.017 33.9253 148.772 34.187 149.246 34.6767C149.721 35.1672 149.965 35.9378 149.965 36.9857V38.421C149.965 38.8866 149.909 39.3146 149.816 39.7053C149.704 40.0929 149.538 40.4231 149.317 40.6974C149.096 40.9718 148.821 41.1904 148.473 41.3362C148.124 41.4823 147.679 41.5571 147.173 41.5571H144.514ZM145.237 40.9128H147.173C147.925 40.9128 148.488 40.7015 148.793 40.2369C149.088 39.7874 149.241 39.2055 149.241 38.4777V36.929C149.241 36.1097 149.069 35.4999 148.688 35.1201C148.307 34.7415 147.733 34.5697 146.945 34.5697H145.237V40.9128ZM145.387 40.7639V34.7186H146.945C147.714 34.7186 148.241 34.8867 148.582 35.2254C148.922 35.5636 149.092 36.1244 149.092 36.929V38.4777C149.092 39.1851 148.942 39.7365 148.667 40.1556C148.403 40.5596 147.902 40.7639 147.173 40.7639H145.387Z" fill="#00923A"/>
<path d="M156.758 34.5308V35.3239H153.132V40.8383H157.499V41.6315H152.258V28.4119H157.499V29.205H153.132V34.5308H156.758Z" fill="#00923A"/>
<path fill-rule="evenodd" clip-rule="evenodd" d="M152.184 41.706H157.574V40.7639H153.206V35.3983H156.833V34.4563H153.206V29.2795H157.574V28.3375H152.184V41.706ZM152.333 41.5571V28.4864H157.424V29.1306H153.057V34.6052H156.684V35.2494H153.057V40.9128H157.424V41.5571H152.333Z" fill="#00923A"/>
</g>
<defs>
<clipPath id="clip0_24_2">
<rect width="158" height="61" fill="white"/>
</clipPath>
</defs>
</svg>
