<svg width="16" height="16" viewBox="0 0 16 16" fill="none" xmlns="http://www.w3.org/2000/svg">
<path d="M15.5 8C15.5 12.1421 12.1421 15.5 8 15.5C3.85786 15.5 0.5 12.1421 0.5 8C0.5 3.85786 3.85786 0.5 8 0.5C12.1421 0.5 15.5 3.85786 15.5 8Z" stroke="#00923A"/>
<path d="M4.57141 10.0002V11.4286H5.99978L10.2125 7.21582L8.78416 5.78745L4.57141 10.0002ZM11.3171 6.11122C11.4657 5.96267 11.4657 5.7227 11.3171 5.57415L10.4258 4.68284C10.2773 4.53429 10.0373 4.53429 9.88877 4.68284L9.19172 5.37989L10.6201 6.80826L11.3171 6.11122Z" fill="#00923A"/>
</svg>
